<?xml version="1.0" encoding="utf-8"?>
<!-- Generator: Adobe Illustrator 18.1.0, SVG Export Plug-In . SVG Version: 6.00 Build 0)  -->
<svg version="1.1" id="Слой_1" xmlns="http://www.w3.org/2000/svg" xmlns:xlink="http://www.w3.org/1999/xlink" x="0px" y="0px"
	 viewBox="0 0 841.9 595.3" enable-background="new 0 0 841.9 595.3" xml:space="preserve">
<g>
	<g>
		<path fill="#E62A3F" d="M378.4,297.8c-4-5.6-8.5-12.1-13.6-19.2c-5.2-7.3-10.5-14.8-15.8-22.1c-5.5-7.6-10.9-15.2-16.1-22.5
			c-5.3-7.5-10.3-14.4-14.6-20.4c-4.5-6.1-8.2-11.3-11.3-15.6c-3.1-4.3-5.1-7.1-6-8.4l-0.1-0.2c-1.6-2-3.4-2.4-4.5-2.4
			c-1.4,0-2.7,0.6-3.8,1.8c-1.1,1.2-1.7,2.5-1.7,3.8v126c0,3.6,2.2,5.8,5.7,5.8c1,0,2.6-0.3,4-1.8c1.1-1.2,1.7-2.6,1.7-4V211.1
			l79.2,111.2c1,1.5,2.6,2.4,4.6,2.4c1.4,0,2.8-0.5,4-1.6c1.2-1.1,1.9-2.5,1.9-4.1c0-0.9-0.2-1.6-4-7.3
			C385.5,308.1,382.3,303.4,378.4,297.8z"/>
	</g>
	<g>
		<path fill="#2B2D42" d="M422.5,153.1c-1.1-1.1-2.5-1.7-4-1.7s-2.9,0.6-4,1.7c-1.1,1.1-1.7,2.5-1.7,4v143.2L308.2,154.8l-0.1-0.1
			c-1.3-1.6-2.8-2.4-4.3-2.4c-3.4,0-5.5,2.2-5.5,5.8c0,1.1,0.1,2.4,1,3.5L414,321.3c1,1.5,2.6,2.4,4.6,2.4c3.6,0,5.8-2.2,5.8-5.8
			l-0.2-160.7C424.2,155.6,423.6,154.2,422.5,153.1z"/>
	</g>
	<g>
		<path fill="#E62A3F" d="M497.9,254.1c2.6,0,5.3-0.2,7.9-0.6c3.3-0.5,5.5-3.6,5-6.9c-0.5-3.3-3.6-5.5-6.9-5
			c-15,2.4-30.2-4.2-38.7-16.8c-12.2-17.9-7.5-42.5,10.4-54.6c17.9-12.2,42.4-7.5,54.6,10.4c1.9,2.7,5.6,3.5,8.3,1.6
			c2.7-1.9,3.5-5.6,1.6-8.3c-15.9-23.4-47.9-29.5-71.3-13.6c-23.4,15.9-29.5,47.9-13.6,71.3C465,245.7,481.1,254.1,497.9,254.1z"/>
	</g>
	<g>
		<path fill="#2B2D42" d="M541.7,244c-11.1-16.4-30.9-24.9-50.5-21.9c-3.3,0.5-5.5,3.6-5,6.9c0.5,3.3,3.6,5.5,6.9,5
			c15-2.4,30.2,4.2,38.7,16.8c12.2,17.9,7.5,42.4-10.4,54.6c-17.9,12.2-42.5,7.5-54.6-10.4c-1.9-2.7-5.6-3.5-8.3-1.6
			c-2.7,1.9-3.5,5.6-1.6,8.3c9.9,14.6,26.1,22.5,42.5,22.5c9.9,0,20-2.9,28.8-8.9C551.5,299.4,557.6,267.4,541.7,244z"/>
	</g>
	<g>
		<path fill="#2B2D42" d="M302.4,377.2c3.6,0,6.5,1.1,8.8,3.4s3.4,5.2,3.4,8.8v28.2c0,1.5-1,2.2-3.1,2.2s-3.1-0.7-3.1-2.2V389
			c0-2-0.6-3.6-1.7-4.7c-1.1-1.1-2.6-1.7-4.3-1.7s-3.2,0.6-4.3,1.7c-1.1,1.1-1.7,2.6-1.7,4.6v28.6c0,1.5-1,2.2-3.1,2.2
			c-2.1,0-3.1-0.7-3.1-2.2v-28.2c0-3.6,1.1-6.5,3.4-8.8c2.2-2.2,5.2-3.3,8.8-3.3L302.4,377.2z"/>
		<path fill="#2B2D42" d="M336.7,394.7c2.3-0.7,3.4-1.5,3.4-2.4v-3.3c0-2-0.6-3.6-1.7-4.7c-1.1-1.1-2.6-1.7-4.3-1.7
			c-1.8,0-3.2,0.6-4.3,1.7c-1.1,1.1-1.7,2.6-1.7,4.6v1.6c0,1.5-1,2.2-3.1,2.2s-3.1-0.7-3.1-2.2v-1.3c0-3.6,1.1-6.5,3.4-8.8
			s5.2-3.4,8.8-3.4s6.5,1.1,8.8,3.4c2.2,2.2,3.4,5.2,3.4,8.8V408c0,3.6-1.1,6.5-3.4,8.8c-2.2,2.2-5.1,3.4-8.7,3.4
			c-3.6,0-6.5-1.1-8.7-3.4c-2.2-2.2-3.4-5.2-3.4-8.8v-0.3c0-2.8,0.7-5.2,2.2-7.1c1.4-1.9,3.9-3.4,7.5-4.5L336.7,394.7z M339.9,399.1
			c-0.2,0.4-0.8,0.7-1.7,1l-4.2,1.3c-1.8,0.6-3.3,1.3-4.3,2.2s-1.5,2.4-1.5,4.3v0.6c0,2,0.6,3.5,1.7,4.6c1.1,1.1,2.6,1.7,4.3,1.7
			c1.8,0,3.2-0.6,4.3-1.7c1.1-1.1,1.7-2.7,1.7-4.7L339.9,399.1z"/>
		<path fill="#2B2D42" d="M361.6,367.1c0,2.2-1.1,3.4-3.3,3.4c-2.2,0-3.3-1.1-3.3-3.4v-2.2c0-2.2,1.1-3.4,3.3-3.4
			c2.2,0,3.3,1.1,3.3,3.4V367.1z M355.2,379.7c0-1.5,1-2.2,3.1-2.2c2.1,0,3.1,0.7,3.1,2.2v37.8c0,1.5-1,2.2-3.1,2.2
			c-2.1,0-3.1-0.7-3.1-2.2V379.7z"/>
		<path fill="#2B2D42" d="M369.8,389.3c0-3.7,1-6.6,3.1-8.9c2.1-2.2,4.9-3.3,8.4-3.3c2.8,0,5,0.9,6.6,2.6v-17.3c0-1.5,1-2.2,3.1-2.2
			s3.1,0.7,3.1,2.2v45.5c0,3.6-1.1,6.5-3.4,8.8c-2.2,2.2-5.1,3.3-8.7,3.3s-6.5-1.1-8.7-3.3c-2.2-2.2-3.4-5.2-3.4-8.8L369.8,389.3z
			 M387.8,388.7c0-1.8-0.6-3.3-1.7-4.3c-1.1-1-2.6-1.6-4.2-1.6c-1.8,0-3.2,0.6-4.3,1.7c-1.1,1.1-1.7,2.6-1.7,4.6v19.3
			c0,2,0.6,3.5,1.7,4.6s2.6,1.7,4.3,1.7s3.2-0.6,4.3-1.7c1.1-1.1,1.7-2.7,1.7-4.7L387.8,388.7z"/>
		<path fill="#2B2D42" d="M409.8,367.1c0,2.2-1.1,3.4-3.3,3.4c-2.2,0-3.3-1.1-3.3-3.4v-2.2c0-2.2,1.1-3.4,3.3-3.4
			c2.2,0,3.3,1.1,3.3,3.4V367.1z M403.4,379.7c0-1.5,1-2.2,3.1-2.2c2.1,0,3.1,0.7,3.1,2.2v37.8c0,1.5-1,2.2-3.1,2.2
			c-2.1,0-3.1-0.7-3.1-2.2V379.7z"/>
		<path fill="#2B2D42" d="M433.7,408.1c0-1.5,1-2.2,3.1-2.2s3.1,0.7,3.1,2.2v1.1c0,1.8,0.5,3.1,1.5,4.1s2.4,1.4,4.1,1.4
			s3-0.5,4.1-1.4s1.5-2.3,1.5-4.1v-0.8c0-1.7-0.4-3-1.3-4.1c-0.9-1-2.5-2-4.8-2.9l-2.4-1c-6-2.4-8.9-6.2-8.9-11.6
			c0-3.6,1-6.4,3.1-8.5c2.1-2.1,4.9-3.1,8.5-3.1s6.4,1,8.5,3.1c2.1,2.1,3.1,4.9,3.1,8.4v0.7c0,1.5-1,2.2-3.1,2.2s-3.1-0.7-3.1-2.2
			v-1.1c0-1.8-0.5-3.3-1.4-4.3c-1-1-2.2-1.5-3.9-1.5s-3,0.5-3.9,1.5s-1.4,2.5-1.4,4.3c0,1.7,0.4,3,1.3,4.1s2.5,2,4.8,2.9l2.4,1
			c6,2.4,8.9,6.2,8.9,11.4v1.2c0,3.4-1.1,6.1-3.4,8.1c-2.2,2-5,3-8.5,3c-3.4,0-6.2-1-8.5-3c-2.2-2-3.3-4.7-3.3-8.1L433.7,408.1z"/>
		<path fill="#2B2D42" d="M473.5,402.7c-2.3,0.7-3.4,1.5-3.4,2.4v3.3c0,2,0.6,3.5,1.7,4.6s2.6,1.7,4.3,1.7c1.8,0,3.2-0.6,4.3-1.7
			s1.7-2.7,1.7-4.7v-1.6c0-1.5,1-2.2,3.1-2.2s3.1,0.7,3.1,2.2v1.3c0,3.6-1.1,6.5-3.4,8.8c-2.2,2.2-5.1,3.4-8.7,3.4s-6.5-1.1-8.7-3.4
			c-2.2-2.2-3.3-5.2-3.3-8.8v-18.7c0-3.6,1.1-6.5,3.3-8.8c2.2-2.2,5.2-3.4,8.8-3.4s6.5,1.1,8.8,3.4c2.2,2.2,3.3,5.2,3.3,8.8v0.3
			c0,2.8-0.7,5.1-2.2,7c-1.4,1.9-3.9,3.4-7.5,4.4L473.5,402.7z M470.2,398.6c0.2-0.4,0.8-0.7,1.7-1l4.2-1.3c1.8-0.6,3.3-1.4,4.3-2.3
			c1-1,1.6-2.4,1.6-4.3v-0.6c0-2-0.6-3.6-1.7-4.7c-1.1-1.1-2.6-1.7-4.3-1.7c-1.8,0-3.2,0.6-4.3,1.7c-1.1,1.1-1.7,2.6-1.7,4.6
			L470.2,398.6z"/>
		<path fill="#2B2D42" d="M520.2,407.8c0,3.6-1.1,6.5-3.4,8.8c-2.2,2.2-5.1,3.4-8.7,3.4s-6.5-1.1-8.7-3.4c-2.2-2.2-3.3-5.2-3.3-8.8
			v-45.5c0-1.5,1-2.2,3.1-2.2s3.1,0.7,3.1,2.2v17.3c1.6-1.8,3.8-2.6,6.6-2.6c3.5,0,6.3,1.1,8.4,3.4s3.1,5.2,3.1,8.9L520.2,407.8z
			 M502.1,408.2c0,2,0.6,3.5,1.7,4.6c1.1,1.1,2.6,1.7,4.3,1.7c1.8,0,3.2-0.6,4.3-1.7c1.1-1.1,1.7-2.7,1.7-4.7v-19.3
			c0-2-0.6-3.6-1.7-4.7s-2.6-1.7-4.3-1.7c-1.7,0-3.1,0.5-4.2,1.5c-1.1,1-1.7,2.5-1.7,4.3L502.1,408.2z"/>
		<path fill="#2B2D42" d="M537.4,402.7c-2.3,0.7-3.4,1.5-3.4,2.4v3.3c0,2,0.6,3.5,1.7,4.6c1.1,1.1,2.6,1.7,4.3,1.7s3.2-0.6,4.3-1.7
			c1.1-1.1,1.7-2.7,1.7-4.7v-1.6c0-1.5,1-2.2,3.1-2.2s3.1,0.7,3.1,2.2v1.3c0,3.6-1.1,6.5-3.3,8.8c-2.2,2.2-5.1,3.4-8.7,3.4
			s-6.5-1.1-8.7-3.4c-2.2-2.2-3.4-5.2-3.4-8.8v-18.7c0-3.6,1.1-6.5,3.4-8.8c2.2-2.2,5.2-3.4,8.8-3.4c3.6,0,6.5,1.1,8.8,3.4
			c2.2,2.2,3.4,5.2,3.4,8.8v0.3c0,2.8-0.7,5.1-2.2,7c-1.4,1.9-3.9,3.4-7.5,4.4L537.4,402.7z M534.1,398.6c0.2-0.4,0.8-0.7,1.7-1
			l4.2-1.3c1.8-0.6,3.3-1.4,4.3-2.3c1-1,1.6-2.4,1.6-4.3v-0.6c0-2-0.6-3.6-1.7-4.7c-1.1-1.1-2.6-1.7-4.3-1.7s-3.2,0.6-4.3,1.7
			c-1.1,1.1-1.7,2.6-1.7,4.6L534.1,398.6z"/>
	</g>
</g>
</svg>
