<svg width="380" height="88" viewBox="0 0 380 88" version="1.1" xmlns="http://www.w3.org/2000/svg" xmlns:xlink="http://www.w3.org/1999/xlink" xmlns:figma="http://www.figma.com/figma/ns">
<title>nidi sebe</title>
<desc>Created using Figma</desc>
<g id="Canvas" transform="translate(97 -587)" figma:type="canvas">
<g id="nidi sebe" style="mix-blend-mode:normal;" figma:type="frame">
<g id="Vector" style="mix-blend-mode:normal;" figma:type="vector">
<use xlink:href="#path0_fill" transform="translate(-97 612.118)" fill="#E62A3F" style="mix-blend-mode:normal;"/>
</g>
<g id="Vector" style="mix-blend-mode:normal;" figma:type="vector">
<use xlink:href="#path1_fill" transform="translate(-51.0755 611.828)" fill="#E62A3F" style="mix-blend-mode:normal;"/>
</g>
<g id="Vector" style="mix-blend-mode:normal;" figma:type="vector">
<use xlink:href="#path2_fill" transform="translate(-3.12276 589.373)" fill="#E62A3F" style="mix-blend-mode:normal;"/>
</g>
<g id="Vector" style="mix-blend-mode:normal;" figma:type="vector">
<use xlink:href="#path3_fill" transform="translate(18.3183 587.489)" fill="#E62A3F" style="mix-blend-mode:normal;"/>
</g>
<g id="Vector" style="mix-blend-mode:normal;" figma:type="vector">
<use xlink:href="#path4_fill" transform="translate(66.7057 589.373)" fill="#E62A3F" style="mix-blend-mode:normal;"/>
</g>
<g id="Vector" style="mix-blend-mode:normal;" figma:type="vector">
<use xlink:href="#path5_fill" transform="translate(110.892 612.118)" fill="#E62A3F" style="mix-blend-mode:normal;"/>
</g>
<g id="Vector" style="mix-blend-mode:normal;" figma:type="vector">
<use xlink:href="#path6_fill" transform="translate(155.078 611.973)" fill="#E62A3F" style="mix-blend-mode:normal;"/>
</g>
<g id="Vector" style="mix-blend-mode:normal;" figma:type="vector">
<use xlink:href="#path7_fill" transform="translate(201.292 587.344)" fill="#E62A3F" style="mix-blend-mode:normal;"/>
</g>
<g id="Vector" style="mix-blend-mode:normal;" figma:type="vector">
<use xlink:href="#path8_fill" transform="translate(247.651 611.973)" fill="#E62A3F" style="mix-blend-mode:normal;"/>
</g>
</g>
</g>
<defs>
<path id="path0_fill" d="M 17.6744 1.76846e-05C 22.8898 1.76846e-05 27.0911 1.5936 30.4232 4.92567C 33.7553 8.25773 35.3489 12.459 35.3489 17.6744L 35.3489 58.5284C 35.3489 60.7015 33.9001 61.7156 30.8578 61.7156C 27.8155 61.7156 26.3668 60.7015 26.3668 58.5284L 26.3668 17.0949C 26.3668 14.1975 25.4975 11.8795 23.9039 10.2859C 22.3104 8.69232 20.1372 7.82311 17.6744 7.82311C 15.2116 7.82311 13.0385 8.69232 11.4449 10.2859C 9.85133 11.8795 8.98207 14.0526 8.98207 16.9501L 8.98207 58.3835C 8.98207 60.5566 7.53334 61.5708 4.49102 61.5708C 1.44871 61.5708 1.76846e-05 60.5566 1.76846e-05 58.3835L 1.76846e-05 17.5295C 1.76846e-05 12.3141 1.5936 8.11285 4.92567 4.78079C 8.11286 1.5936 12.459 1.76846e-05 17.6744 1.76846e-05Z"/>
<path id="path1_fill" d="M 21.4411 25.6424C 24.7732 24.6283 26.3668 23.4693 26.3668 22.1654L 26.3668 17.3847C 26.3668 14.4872 25.4975 12.1693 23.9039 10.5757C 22.3103 8.98207 20.1373 8.11286 17.6744 8.11286C 15.0667 8.11286 13.0385 8.98207 11.4449 10.5757C 9.8513 12.1693 8.98209 14.3424 8.98209 17.2398L 8.98209 19.5578C 8.98209 21.7308 7.53336 22.745 4.49104 22.745C 1.44872 22.745 -8.8423e-06 21.7308 -8.8423e-06 19.5578L -8.8423e-06 17.6744C -8.8423e-06 12.459 1.59358 8.25771 4.92564 4.92565C 8.2577 1.59359 12.459 -8.23504e-14 17.6744 -8.23504e-14C 22.8898 -8.23504e-14 27.0911 1.59359 30.4232 4.92565C 33.6104 8.11284 35.3488 12.459 35.3488 17.6744L 35.3488 44.9104C 35.3488 50.1258 33.7552 54.3271 30.4232 57.6592C 27.236 60.8464 23.0347 62.5849 17.8193 62.5849C 12.6039 62.5849 8.40259 60.9912 5.2154 57.6592C 2.02821 54.472 0.289753 50.1258 0.289753 44.9104L 0.289753 44.4758C 0.289753 40.4194 1.30383 36.9424 3.47692 34.1899C 5.50513 31.4373 9.12694 29.2642 14.3423 27.6706L 21.4411 25.6424ZM 26.077 32.0168C 25.7873 32.5963 24.9181 33.0309 23.6142 33.4655L 17.5296 35.3488C 14.9218 36.2181 12.7488 37.2322 11.3001 38.536C 9.85133 39.8399 9.12697 42.013 9.12697 44.7655L 9.12697 45.6348C 9.12697 48.5322 9.99618 50.7053 11.5898 52.2989C 13.1834 53.8925 15.3565 54.7617 17.8193 54.7617C 20.427 54.7617 22.4552 53.8925 24.0488 52.2989C 25.6424 50.7053 26.5117 48.3873 26.5117 45.4899L 26.077 32.0168Z"/>
<path id="path2_fill" d="M 9.56158 8.11286C 9.56158 11.3 7.96796 13.0385 4.78077 13.0385C 1.59358 13.0385 0 11.4449 0 8.11286L 0 4.92565C 0 1.73846 1.59358 -8.23504e-14 4.78077 -8.23504e-14C 7.96796 -8.23504e-14 9.56158 1.59359 9.56158 4.92565L 9.56158 8.11286ZM 0.289762 26.3668C 0.289762 24.1937 1.73845 23.1796 4.78077 23.1796C 7.82309 23.1796 9.27182 24.1937 9.27182 26.3668L 9.27182 81.1285C 9.27182 83.3016 7.82309 84.3157 4.78077 84.3157C 1.73845 84.3157 0.289762 83.3016 0.289762 81.1285L 0.289762 26.3668Z"/>
<path id="path3_fill" d="M -1.76846e-05 42.1578C -1.76846e-05 36.7976 1.44871 32.5963 4.49103 29.2642C 7.53335 26.077 11.5898 24.4834 16.6603 24.4834C 20.7167 24.4834 23.9039 25.7873 26.2219 28.2501L 26.2219 3.18718C 26.2219 1.0141 27.6706 1.76846e-05 30.7129 1.76846e-05C 33.7552 1.76846e-05 35.204 1.0141 35.204 3.18718L 35.204 69.1041C 35.204 74.3195 33.6104 78.5208 30.2783 81.8529C 27.0911 85.0401 22.8898 86.6336 17.6744 86.6336C 12.459 86.6336 8.2577 85.0401 5.07051 81.8529C 1.88332 78.6657 0.144863 74.3195 0.144863 69.1041L -1.76846e-05 42.1578ZM 26.077 41.2886C 26.077 38.6809 25.2078 36.5078 23.6142 35.0591C 22.0206 33.6104 19.8475 32.7411 17.5295 32.7411C 14.9218 32.7411 12.8936 33.6104 11.3 35.204C 9.70645 36.7976 8.8372 38.9707 8.8372 41.8681L 8.8372 69.8284C 8.8372 72.7259 9.70645 74.899 11.3 76.4926C 12.8936 78.0862 15.0667 78.9554 17.5295 78.9554C 19.9924 78.9554 22.1655 78.0862 23.7591 76.4926C 25.3527 74.899 26.2219 72.581 26.2219 69.6836L 26.077 41.2886Z"/>
<path id="path4_fill" d="M 9.56155 8.11286C 9.56155 11.3 7.96798 13.0385 4.78079 13.0385C 1.5936 13.0385 1.76846e-05 11.4449 1.76846e-05 8.11286L 1.76846e-05 4.92565C 1.76846e-05 1.73846 1.5936 -8.23504e-14 4.78079 -8.23504e-14C 7.96798 -8.23504e-14 9.56155 1.59359 9.56155 4.92565L 9.56155 8.11286ZM 0.289736 26.3668C 0.289736 24.1937 1.73847 23.1796 4.78079 23.1796C 7.8231 23.1796 9.27184 24.1937 9.27184 26.3668L 9.27184 81.1285C 9.27184 83.3016 7.8231 84.3157 4.78079 84.3157C 1.73847 84.3157 0.289736 83.3016 0.289736 81.1285L 0.289736 26.3668Z"/>
<path id="path5_fill" d="M 1.76846e-05 44.7655C 1.76846e-05 42.5925 1.44871 41.5783 4.49102 41.5783C 7.53334 41.5783 8.98207 42.5925 8.98207 44.7655L 8.98207 46.3592C 8.98207 48.9669 9.70644 50.8502 11.1552 52.2989C 12.6039 53.7476 14.6321 54.3271 17.0949 54.3271C 19.5578 54.3271 21.4411 53.6027 23.0347 52.2989C 24.6283 50.995 25.2078 48.9669 25.2078 46.3592L 25.2078 45.2001C 25.2078 42.7373 24.6283 40.854 23.3244 39.2604C 22.0206 37.8117 19.7026 36.3629 16.3706 35.0591L 12.8936 33.6104C 4.20131 30.1334 1.76846e-05 24.6283 1.76846e-05 16.8052C 1.76846e-05 11.5898 1.44871 7.53334 4.49102 4.49102C 7.53334 1.44871 11.5898 1.76846e-05 16.8052 1.76846e-05C 22.0206 1.76846e-05 26.077 1.44871 29.1193 4.49102C 32.1616 7.53334 33.6104 11.5898 33.6104 16.6603L 33.6104 17.6744C 33.6104 19.8475 32.1616 20.8616 29.1193 20.8616C 26.077 20.8616 24.6283 19.8475 24.6283 17.6744L 24.6283 16.0808C 24.6283 13.4731 23.9039 11.3 22.6001 9.85132C 21.1513 8.40259 19.4129 7.67823 16.9501 7.67823C 14.4872 7.67823 12.6039 8.40259 11.3 9.85132C 9.99619 11.3 9.27184 13.4731 9.27184 16.0808C 9.27184 18.5436 9.85131 20.427 11.1552 22.0206C 12.459 23.6142 14.777 24.918 18.1091 26.2219L 21.586 27.6706C 30.2783 31.1475 34.4796 36.6527 34.4796 44.1861L 34.4796 45.9245C 34.4796 50.8502 32.886 54.7617 29.554 57.6592C 26.3668 60.5566 22.3103 62.0053 17.2398 62.0053C 12.3142 62.0053 8.25773 60.5566 4.92567 57.6592C 1.73848 54.7617 0.144855 50.8502 0.144855 45.9245L 1.76846e-05 44.7655Z"/>
<path id="path6_fill" d="M 13.4731 37.0873C 10.1411 38.1014 8.54748 39.2604 8.54748 40.5643L 8.54748 45.345C 8.54748 48.2425 9.41668 50.4156 11.0103 52.0092C 12.6039 53.6028 14.777 54.472 17.2398 54.472C 19.8475 54.472 21.8757 53.6028 23.4693 52.0092C 25.0629 50.4156 25.9322 48.0976 25.9322 45.2001L 25.9322 42.8822C 25.9322 40.7091 27.3809 39.695 30.4232 39.695C 33.4655 39.695 34.9142 40.7091 34.9142 42.8822L 34.9142 44.7655C 34.9142 49.9809 33.3206 54.1822 29.9886 57.5143C 26.8014 60.7015 22.6001 62.44 17.3847 62.44C 12.1693 62.44 7.96798 60.8464 4.78079 57.5143C 1.5936 54.3271 1.76846e-05 49.9809 1.76846e-05 44.7655L 1.76846e-05 17.6744C 1.76846e-05 12.459 1.5936 8.25772 4.78079 4.92566C 7.96798 1.73847 12.3141 8.8423e-06 17.5295 8.8423e-06C 22.7449 8.8423e-06 26.9463 1.5936 30.2783 4.92566C 33.4655 8.11285 35.0591 12.459 35.0591 17.6744L 35.0591 18.109C 35.0591 22.1655 34.045 25.4975 31.8719 28.2501C 29.8437 31.0027 26.2219 33.1758 21.0065 34.6245L 13.4731 37.0873ZM 8.69236 31.1476C 8.9821 30.5681 9.85131 30.1334 11.1552 29.6988L 17.2398 27.8155C 19.8475 26.9462 22.0206 25.7873 23.4693 24.4834C 24.918 23.0347 25.7873 21.0065 25.7873 18.2539L 25.7873 17.3847C 25.7873 14.4872 24.918 12.1693 23.3244 10.5757C 21.7308 8.98207 19.5578 8.11287 17.0949 8.11287C 14.4872 8.11287 12.459 8.98207 10.8654 10.5757C 9.27185 12.1693 8.40259 14.3424 8.40259 17.2398L 8.69236 31.1476Z"/>
<path id="path7_fill" d="M 34.9142 69.1041C 34.9142 74.3195 33.3206 78.5208 29.9885 81.8529C 26.8014 85.0401 22.6001 86.7785 17.3847 86.7785C 12.1693 86.7785 7.96797 85.1849 4.78078 81.8529C 1.59359 78.6657 8.8423e-06 74.3195 8.8423e-06 69.1041L 8.8423e-06 3.18717C 8.8423e-06 1.01409 1.44874 8.8423e-06 4.49106 8.8423e-06C 7.53338 8.8423e-06 8.98207 1.01409 8.98207 3.18717L 8.98207 28.2501C 11.3 25.6424 14.4872 24.4834 18.5436 24.4834C 23.6142 24.4834 27.6706 26.077 30.7129 29.4091C 33.7552 32.7411 35.204 36.9424 35.204 42.3027L 34.9142 69.1041ZM 8.69235 69.6836C 8.69235 72.581 9.56155 74.7541 11.1551 76.3477C 12.7487 77.9413 14.9219 78.8105 17.3847 78.8105C 19.9924 78.8105 22.0206 77.9413 23.6142 76.3477C 25.2078 74.7541 26.077 72.4362 26.077 69.5387L 26.077 41.5783C 26.077 38.6809 25.2078 36.363 23.6142 34.7694C 22.0206 33.1758 19.8475 32.3065 17.3847 32.3065C 14.9219 32.3065 12.8936 33.0309 11.3 34.4796C 9.70644 35.9283 8.83723 38.1014 8.83723 40.7091L 8.69235 69.6836Z"/>
<path id="path8_fill" d="M 13.4732 37.0873C 10.1411 38.1014 8.54747 39.2604 8.54747 40.5643L 8.54747 45.345C 8.54747 48.2425 9.41672 50.4156 11.0103 52.0092C 12.6039 53.6028 14.777 54.472 17.2398 54.472C 19.7026 54.472 21.8757 53.6028 23.4693 52.0092C 25.0629 50.4156 25.9321 48.0976 25.9321 45.2001L 25.9321 42.8822C 25.9321 40.7091 27.3808 39.695 30.4231 39.695C 33.4655 39.695 34.9142 40.7091 34.9142 42.8822L 34.9142 44.7655C 34.9142 49.9809 33.3207 54.1822 30.1335 57.5143C 26.9463 60.7015 22.745 62.44 17.5296 62.44C 12.3142 62.44 8.11285 60.8464 4.92566 57.5143C 1.73847 54.3271 -3.53692e-05 49.9809 -3.53692e-05 44.7655L -3.53692e-05 17.6744C -3.53692e-05 12.459 1.5936 8.25772 4.92566 4.92566C 8.11285 1.73847 12.459 8.8423e-06 17.6744 8.8423e-06C 22.8898 8.8423e-06 27.0911 1.5936 30.4231 4.92566C 33.6103 8.11285 35.3488 12.459 35.3488 17.6744L 35.3488 18.109C 35.3488 22.1655 34.3347 25.4975 32.1616 28.2501C 30.1334 31.0027 26.5116 33.1758 21.2962 34.6245L 13.4732 37.0873ZM 8.6923 31.1476C 8.98205 30.5681 9.8513 30.1334 11.1552 29.6988L 17.2398 27.8155C 19.8475 26.9462 22.0206 25.7873 23.4693 24.4834C 24.918 23.0347 25.7873 21.0065 25.7873 18.2539L 25.7873 17.3847C 25.7873 14.4872 24.9181 12.1693 23.3245 10.5757C 21.7309 8.98207 19.5578 8.11287 17.095 8.11287C 14.6321 8.11287 12.459 8.98207 10.8654 10.5757C 9.27179 12.1693 8.40263 14.3424 8.40263 17.2398L 8.6923 31.1476Z"/>
</defs>
</svg>
